<?xml version="1.0" encoding="utf-8"?>
<!-- Generator: Adobe Illustrator 28.1.0, SVG Export Plug-In . SVG Version: 6.00 Build 0)  -->
<svg version="1.1" id="Layer_1" xmlns="http://www.w3.org/2000/svg" xmlns:xlink="http://www.w3.org/1999/xlink" x="0px" y="0px"
	 width="100px" height="100px" viewBox="0 0 100 100" style="enable-background:new 0 0 100 100;" xml:space="preserve">
<g>
	<rect x="44.6" y="74.6" style="fill:#C9E5F7;" width="10.9" height="11.1"/>
	<g>
		<path style="fill:#5555FF;" d="M99,50C99,22.9,77.1,1,50,1C22.9,1,1,22.9,1,50c0,20.2,12.2,37.5,29.7,45
			C32.2,84.9,41.9,81.3,50,81.3c8.1,0,17.8,3.7,19.3,13.8C86.8,87.5,99,70.2,99,50z"/>
		<path style="fill:#FFFFFF;" d="M50,81.3c-8.1,0-17.8,3.7-19.3,13.8c5.9,2.6,12.5,4,19.3,4c6.9,0,13.4-1.4,19.3-4
			C67.8,84.9,58.1,81.3,50,81.3z"/>
	</g>
	<g>
		<g>
			<g>
				<g>
					<rect x="76.6" y="30.5" style="fill:#D2EAFF;" width="2" height="13.1"/>
					<path style="fill:#FFFFFF;" d="M81.3,28.8c0-2-1.6-3.6-3.6-3.6c-2,0-3.6,1.6-3.6,3.6c0,2,1.6,3.6,3.6,3.6
						C79.7,32.4,81.3,30.8,81.3,28.8z"/>
				</g>
				<g>
					<rect x="21.3" y="30.5" style="fill:#D2EAFF;" width="2" height="13.1"/>
					<path style="fill:#FFFFFF;" d="M26,28.8c0-2-1.6-3.6-3.6-3.6c-2,0-3.6,1.6-3.6,3.6c0,2,1.6,3.6,3.6,3.6
						C24.4,32.4,26,30.8,26,28.8z"/>
				</g>
			</g>
			<path style="fill:#FFFFFF;" d="M76.2,51.4c0-0.5,0-3.8,0-4.3C75.4,33.3,64,25.2,50,25.2s-25.4,8.1-26.2,21.9c0,0.5,0,3.8,0,4.3
				c0,0.5,0,3.8,0,4.3c0.7,13.8,12.2,22,26.2,22c14,0,25.5-8.1,26.2-22C76.2,55.2,76.2,51.9,76.2,51.4z"/>
			<path style="fill:#FFFFFF;" d="M82.5,50.6c0-0.1,0-1.9,0-2c-0.2-4.1-3.6-5.8-7.8-5.8c-4.2,0-7.6,2.4-7.8,6.6c0,0.1,0,1.1,0,1.3
				c0,0.1,0,1.9,0,2c0.2,4.1,3.6,6.6,7.8,6.6c4.2,0,7.6-1.7,7.8-5.8C82.5,53.2,82.5,50.7,82.5,50.6z"/>
			<path style="fill:#FFFFFF;" d="M33.2,50.6c0-0.1,0-1.1,0-1.3c-0.2-4.1-3.6-6.6-7.8-6.6c-4.2,0-7.6,2.1-7.8,6.2c0,0.1,0,1.5,0,1.7
				c0,0.1,0,2.2,0,2.4c0.2,4.1,3.6,6.2,7.8,6.2c4.2,0,7.6-2.4,7.8-6.6C33.2,52.5,33.2,50.7,33.2,50.6z"/>
			<path style="fill:#EDF2F4;" d="M76,44.7c-1.9,12.4-12.8,19.6-26,19.6c-13.2,0-24.1-7.2-26-19.6c-0.1,0.8-0.2,1.5-0.2,2.3
				c0,0.5,0,3.8,0,4.3c0,0.5,0,3.8,0,4.3c0.7,13.8,12.2,22,26.2,22c14,0,25.5-8.1,26.2-22c0-0.5,0-3.8,0-4.3c0-0.5,0-3.8,0-4.3
				C76.2,46.3,76.1,45.5,76,44.7z"/>
			<path style="fill:#D7EEFF;" d="M50,70.1c-8.6,0-18.9-4.1-19.5-15.6c0-0.5,0-2.3,0-3.1c0-0.7,0-3.5,0-4
				C31.1,35.9,41.4,34.1,50,34.1c8.6,0,18.9,1.9,19.5,13.4c0,0.5,0,3.3,0,4c0,0.7,0,2.5,0,3.1C68.9,66,58.6,70.1,50,70.1z"/>
			<path style="fill:#C9E5F7;" d="M50,64.3c-7.5,0-14.3-2.3-19.1-6.6c2.2,9.1,11.3,12.4,19.1,12.4c7.8,0,16.9-3.3,19.1-12.4
				C64.3,61.9,57.5,64.3,50,64.3z"/>
		</g>
		<g>
			<circle style="fill:#5555FF;" cx="40.1" cy="51" r="3.1"/>
			<path style="fill:#5555FF;" d="M63,51c0-1.7-1.4-3.1-3.1-3.1c-1.7,0-3.1,1.4-3.1,3.1c0,1.7,1.4,3.1,3.1,3.1
				C61.6,54,63,52.7,63,51z"/>
		</g>
	</g>
</g>
</svg>
