<?xml version="1.0" encoding="utf-8"?>
<!-- Generator: Adobe Illustrator 28.1.0, SVG Export Plug-In . SVG Version: 6.00 Build 0)  -->
<svg version="1.1" id="Layer_1" xmlns="http://www.w3.org/2000/svg" xmlns:xlink="http://www.w3.org/1999/xlink" x="0px" y="0px"
	 width="100px" height="100px" viewBox="0 0 100 100" style="enable-background:new 0 0 100 100;" xml:space="preserve">
<g>
	<path style="fill:#5555FF;" d="M50,99.5c27.4,0,49.5-22.2,49.5-49.5
		C99.5,22.6,77.4,0.5,50,0.5C22.6,0.5,0.5,22.6,0.5,50C0.5,77.4,22.6,99.5,50,99.5z"/>
	<path style="fill:#ffffff;" d="M50,24.9c-10.3,0-18.6,8.3-18.6,18.6c0,10.1,7.9,18.2,18.3,18.5h0.4h0.3h0.1
		c10-0.3,17.9-8.5,17.9-18.5C68.6,33.2,60.3,24.9,50,24.9z"/>
	<path style="fill:#ffffff;" d="M83.6,86.4C74.8,94.5,63,99.5,50,99.5s-24.8-5-33.6-13.1c1.2-4.5,4.4-8.6,9.1-11.8
		c13.5-9,35.5-9,48.9,0C79.2,77.8,82.4,81.9,83.6,86.4z"/>
</g>
</svg>
